<svg width="1200" height="300" viewBox="0 0 1200 300" xmlns="http://www.w3.org/2000/svg">
<defs>
  <linearGradient id="bgGrad" x1="0%" y1="0%" x2="100%" y2="100%">
    <stop offset="0%" stop-color="#0a0e14"/>
    <stop offset="55%" stop-color="#0d1117"/>
    <stop offset="100%" stop-color="#05070a"/>
  </linearGradient>
  <filter id="blurBg" x="-50%" y="-50%" width="200%" height="200%">
    <feGaussianBlur stdDeviation="3.2"/>
  </filter>
  <filter id="blurMid" x="-50%" y="-50%" width="200%" height="200%">
    <feGaussianBlur stdDeviation="1.3"/>
  </filter>
  <filter id="glow" x="-60%" y="-60%" width="220%" height="220%">
    <feGaussianBlur stdDeviation="4.5" result="blur"/>
    <feMerge>
      <feMergeNode in="blur"/>
      <feMergeNode in="SourceGraphic"/>
    </feMerge>
  </filter>
  <linearGradient id="textGrad" x1="0%" y1="0%" x2="100%" y2="0%">
    <stop offset="0%" stop-color="#34d399"/>
    <stop offset="45%" stop-color="#22d3ee"/>
    <stop offset="100%" stop-color="#a855f7"/>
  </linearGradient>
  <style>
    .cursor { animation: blink 1.1s steps(1) infinite; }
    @keyframes blink { 0%,49% { opacity:1; } 50%,100% { opacity:0; } }
    .floaty { animation: floaty 6s ease-in-out infinite; }
    @keyframes floaty { 0%,100% { transform: translateY(0px); } 50% { transform: translateY(-6px); } }
    .scan { animation: scan 5s linear infinite; }
    @keyframes scan { 0% { transform: translateX(-1200px); } 100% { transform: translateX(1200px); } }
  </style>
</defs>

<rect width="1200" height="300" fill="url(#bgGrad)"/>

<!-- faint grid lines for a terminal/matrix feel -->
<g stroke="#1c2333" stroke-width="1" opacity="0.5"><line x1="0" y1="0" x2="0" y2="300"/><line x1="40" y1="0" x2="40" y2="300"/><line x1="80" y1="0" x2="80" y2="300"/><line x1="120" y1="0" x2="120" y2="300"/><line x1="160" y1="0" x2="160" y2="300"/><line x1="200" y1="0" x2="200" y2="300"/><line x1="240" y1="0" x2="240" y2="300"/><line x1="280" y1="0" x2="280" y2="300"/><line x1="320" y1="0" x2="320" y2="300"/><line x1="360" y1="0" x2="360" y2="300"/><line x1="400" y1="0" x2="400" y2="300"/><line x1="440" y1="0" x2="440" y2="300"/><line x1="480" y1="0" x2="480" y2="300"/><line x1="520" y1="0" x2="520" y2="300"/><line x1="560" y1="0" x2="560" y2="300"/><line x1="600" y1="0" x2="600" y2="300"/><line x1="640" y1="0" x2="640" y2="300"/><line x1="680" y1="0" x2="680" y2="300"/><line x1="720" y1="0" x2="720" y2="300"/><line x1="760" y1="0" x2="760" y2="300"/><line x1="800" y1="0" x2="800" y2="300"/><line x1="840" y1="0" x2="840" y2="300"/><line x1="880" y1="0" x2="880" y2="300"/><line x1="920" y1="0" x2="920" y2="300"/><line x1="960" y1="0" x2="960" y2="300"/><line x1="1000" y1="0" x2="1000" y2="300"/><line x1="1040" y1="0" x2="1040" y2="300"/><line x1="1080" y1="0" x2="1080" y2="300"/><line x1="1120" y1="0" x2="1120" y2="300"/><line x1="1160" y1="0" x2="1160" y2="300"/><line x1="1200" y1="0" x2="1200" y2="300"/><line x1="0" y1="0" x2="1200" y2="0"/><line x1="0" y1="40" x2="1200" y2="40"/><line x1="0" y1="80" x2="1200" y2="80"/><line x1="0" y1="120" x2="1200" y2="120"/><line x1="0" y1="160" x2="1200" y2="160"/><line x1="0" y1="200" x2="1200" y2="200"/><line x1="0" y1="240" x2="1200" y2="240"/><line x1="0" y1="280" x2="1200" y2="280"/></g><g class="floaty"><g opacity="0.14232606856402302" filter="url(#blurBg)"><polygon points="767.3121581494605,7.50322656680008 777.5123926964135,13.113355567624206 767.3121581494605,18.72348456844833 757.1119236025075,13.113355567624206" fill="#22d3ee"/><polygon points="757.1119236025075,13.113355567624206 767.3121581494605,18.72348456844833 767.3121581494605,30.453754297444227 757.1119236025075,24.843625296620104" fill="#0891b2"/><polygon points="767.3121581494605,18.72348456844833 777.5123926964135,13.113355567624206 777.5123926964135,24.843625296620104 767.3121581494605,30.453754297444227" fill="#0e7490"/></g><g opacity="0.12508522871708538" filter="url(#blurBg)"><polygon points="122.994211405809,222.20032340030275 135.35714367579578,228.99993614879548 122.994211405809,235.79954889728822 110.6312791358222,228.99993614879548" fill="#f472b6"/><polygon points="110.6312791358222,228.99993614879548 122.994211405809,235.79954889728822 122.994211405809,250.01692100777302 110.6312791358222,243.2173082592803" fill="#db2777"/><polygon points="122.994211405809,235.79954889728822 135.35714367579578,228.99993614879548 135.35714367579578,243.2173082592803 122.994211405809,250.01692100777302" fill="#9d174d"/></g><g opacity="0.23456313806758455" filter="url(#blurBg)"><polygon points="112.43428783391094,69.79826801722187 125.25043766631079,76.84715042504179 112.43428783391094,83.89603283286169 99.6181380015111,76.84715042504179" fill="#22d3ee"/><polygon points="99.6181380015111,76.84715042504179 112.43428783391094,83.89603283286169 112.43428783391094,98.63460514012151 99.6181380015111,91.5857227323016" fill="#0891b2"/><polygon points="112.43428783391094,83.89603283286169 125.25043766631079,76.84715042504179 125.25043766631079,91.5857227323016 112.43428783391094,98.63460514012151" fill="#0e7490"/></g><g opacity="0.2495088730684523" filter="url(#blurBg)"><polygon points="841.5899683082831,125.85594628849762 853.183640678554,132.23246609214658 841.5899683082831,138.60898589579554 829.9962959380123,132.23246609214658" fill="#34d399"/><polygon points="829.9962959380123,132.23246609214658 841.5899683082831,138.60898589579554 841.5899683082831,151.941709121607 829.9962959380123,145.56518931795804" fill="#10b981"/><polygon points="841.5899683082831,138.60898589579554 853.183640678554,132.23246609214658 853.183640678554,145.56518931795804 841.5899683082831,151.941709121607" fill="#047857"/></g><g opacity="0.1644594146674627" filter="url(#blurBg)"><polygon points="7.79851161367322,241.74577554984236 21.383626773579035,249.21758888779055 7.79851161367322,256.6894022257388 -5.786603546232595,249.21758888779055" fill="#34d399"/><polygon points="-5.786603546232595,249.21758888779055 7.79851161367322,256.6894022257388 7.79851161367322,272.31228465963045 -5.786603546232595,264.84047132168223" fill="#10b981"/><polygon points="7.79851161367322,256.6894022257388 21.383626773579035,249.21758888779055 21.383626773579035,264.84047132168223 7.79851161367322,272.31228465963045" fill="#047857"/></g><g opacity="0.13547462029335425" filter="url(#blurBg)"><polygon points="258.37651452910654,229.04823870195716 267.19419674126533,233.8979639186445 258.37651452910654,238.74768913533183 249.55883231694776,233.8979639186445" fill="#f472b6"/><polygon points="249.55883231694776,233.8979639186445 258.37651452910654,238.74768913533183 258.37651452910654,248.88802367931444 249.55883231694776,244.03829846262713" fill="#db2777"/><polygon points="258.37651452910654,238.74768913533183 267.19419674126533,233.8979639186445 267.19419674126533,244.03829846262713 258.37651452910654,248.88802367931444" fill="#9d174d"/></g><g opacity="0.20579649463275212" filter="url(#blurBg)"><polygon points="1016.9932396169518,181.1178094100673 1031.4502658031467,189.0691738124746 1016.9932396169518,197.02053821488187 1002.5362134307567,189.0691738124746" fill="#f472b6"/><polygon points="1002.5362134307567,189.0691738124746 1016.9932396169518,197.02053821488187 1016.9932396169518,213.64611832900616 1002.5362134307567,205.69475392659888" fill="#db2777"/><polygon points="1016.9932396169518,197.02053821488187 1031.4502658031467,189.0691738124746 1031.4502658031467,205.69475392659888 1016.9932396169518,213.64611832900616" fill="#9d174d"/></g><g opacity="0.21237634324108196" filter="url(#blurBg)"><polygon points="1167.7389167752447,113.56031316250605 1180.1552418254305,120.38929194010825 1167.7389167752447,127.21827071771045 1155.3225917250588,120.38929194010825" fill="#34d399"/><polygon points="1155.3225917250588,120.38929194010825 1167.7389167752447,127.21827071771045 1167.7389167752447,141.49704452542414 1155.3225917250588,134.66806574782194" fill="#10b981"/><polygon points="1167.7389167752447,127.21827071771045 1180.1552418254305,120.38929194010825 1180.1552418254305,134.66806574782194 1167.7389167752447,141.49704452542414" fill="#047857"/></g><g opacity="0.27763544330572126" filter="url(#blurBg)"><polygon points="845.4862034579081,13.747315096698664 855.3093896631204,19.15006750956547 845.4862034579081,24.552819922432278 835.6630172526958,19.15006750956547" fill="#34d399"/><polygon points="835.6630172526958,19.15006750956547 845.4862034579081,24.552819922432278 845.4862034579081,35.84948405842651 835.6630172526958,30.4467316455597" fill="#10b981"/><polygon points="845.4862034579081,24.552819922432278 855.3093896631204,19.15006750956547 855.3093896631204,30.4467316455597 845.4862034579081,35.84948405842651" fill="#047857"/></g><g opacity="0.22170951108230405" filter="url(#blurBg)"><polygon points="1026.3812652181764,259.9451000265809 1037.4222750184897,266.01765541675326 1026.3812652181764,272.0902108069256 1015.3402554178631,266.01765541675326" fill="#f472b6"/><polygon points="1015.3402554178631,266.01765541675326 1026.3812652181764,272.0902108069256 1026.3812652181764,284.7873720772859 1015.3402554178631,278.71481668711357" fill="#db2777"/><polygon points="1026.3812652181764,272.0902108069256 1037.4222750184897,266.01765541675326 1037.4222750184897,278.71481668711357 1026.3812652181764,284.7873720772859" fill="#9d174d"/></g><g opacity="0.2322912501533682" filter="url(#blurBg)"><polygon points="437.7986147641011,111.05429013506479 447.474671010273,116.37612107045933 437.7986147641011,121.69795200585388 428.1225585179292,116.37612107045933" fill="#34d399"/><polygon points="428.1225585179292,116.37612107045933 437.7986147641011,121.69795200585388 437.7986147641011,132.82541668895158 428.1225585179292,127.50358575355702" fill="#10b981"/><polygon points="437.7986147641011,121.69795200585388 447.474671010273,116.37612107045933 447.474671010273,127.50358575355702 437.7986147641011,132.82541668895158" fill="#047857"/></g><g opacity="0.14614439900190854" filter="url(#blurBg)"><polygon points="820.2571986440007,21.420752873564496 833.3370249495772,28.614657341631563 820.2571986440007,35.80856180969863 807.1773723384242,28.614657341631563" fill="#22d3ee"/><polygon points="807.1773723384242,28.614657341631563 820.2571986440007,35.80856180969863 820.2571986440007,50.85036206111158 807.1773723384242,43.656457593044514" fill="#0891b2"/><polygon points="820.2571986440007,35.80856180969863 833.3370249495772,28.614657341631563 833.3370249495772,43.656457593044514 820.2571986440007,50.85036206111158" fill="#0e7490"/></g><g opacity="0.22953828015837996" filter="url(#blurBg)"><polygon points="455.34653010917737,296.85700519097855 468.4665281880101,304.07300413433654 455.34653010917737,311.2890030776946 442.22653203034463,304.07300413433654" fill="#22d3ee"/><polygon points="442.22653203034463,304.07300413433654 455.34653010917737,311.2890030776946 455.34653010917737,326.37700086835224 442.22653203034463,319.1610019249942" fill="#0891b2"/><polygon points="455.34653010917737,311.2890030776946 468.4665281880101,304.07300413433654 468.4665281880101,319.1610019249942 455.34653010917737,326.37700086835224" fill="#0e7490"/></g><g opacity="0.24880732812339432" filter="url(#blurBg)"><polygon points="1011.4223042277715,232.79997346387344 1021.2546888034843,238.2077849805155 1011.4223042277715,243.61559649715755 1001.5899196520587,238.2077849805155" fill="#a855f7"/><polygon points="1001.5899196520587,238.2077849805155 1011.4223042277715,243.61559649715755 1011.4223042277715,254.92283875922732 1001.5899196520587,249.51502724258526" fill="#7e22ce"/><polygon points="1011.4223042277715,243.61559649715755 1021.2546888034843,238.2077849805155 1021.2546888034843,249.51502724258526 1011.4223042277715,254.92283875922732" fill="#6b21a8"/></g><g opacity="0.1540202470486625" filter="url(#blurBg)"><polygon points="481.3977444267947,19.85658156346417 496.70283342027903,28.274380509880572 481.3977444267947,36.69217945629697 466.09265543331037,28.274380509880572" fill="#34d399"/><polygon points="466.09265543331037,28.274380509880572 481.3977444267947,36.69217945629697 481.3977444267947,54.29303179880398 466.09265543331037,45.87523285238758" fill="#10b981"/><polygon points="481.3977444267947,36.69217945629697 496.70283342027903,28.274380509880572 496.70283342027903,45.87523285238758 481.3977444267947,54.29303179880398" fill="#047857"/></g><g opacity="0.1623808266396884" filter="url(#blurBg)"><polygon points="599.0775113907328,265.40494616601075 612.2203263523362,272.63349439489264 599.0775113907328,279.86204262377447 585.9346964291293,272.63349439489264" fill="#22d3ee"/><polygon points="585.9346964291293,272.63349439489264 599.0775113907328,279.86204262377447 599.0775113907328,294.97627982961836 585.9346964291293,287.74773160073653" fill="#0891b2"/><polygon points="599.0775113907328,279.86204262377447 612.2203263523362,272.63349439489264 612.2203263523362,287.74773160073653 599.0775113907328,294.97627982961836" fill="#0e7490"/></g><g opacity="0.26365166137639634" filter="url(#blurBg)"><polygon points="295.9530092327801,168.41044024894524 306.0549421009636,173.96650332644614 295.9530092327801,179.52256640394705 285.8510763645966,173.96650332644614" fill="#f472b6"/><polygon points="285.8510763645966,173.96650332644614 295.9530092327801,179.52256640394705 295.9530092327801,191.13978920235806 285.8510763645966,185.58372612485715" fill="#db2777"/><polygon points="295.9530092327801,179.52256640394705 306.0549421009636,173.96650332644614 306.0549421009636,185.58372612485715 295.9530092327801,191.13978920235806" fill="#9d174d"/></g><g opacity="0.134545505947807" filter="url(#blurBg)"><polygon points="479.2806061684767,65.796227747185 495.26090702043757,74.58539321576349 479.2806061684767,83.37455868434196 463.30030531651585,74.58539321576349" fill="#f472b6"/><polygon points="463.30030531651585,74.58539321576349 479.2806061684767,83.37455868434196 479.2806061684767,101.75190466409697 463.30030531651585,92.96273919551851" fill="#db2777"/><polygon points="479.2806061684767,83.37455868434196 495.26090702043757,74.58539321576349 495.26090702043757,92.96273919551851 479.2806061684767,101.75190466409697" fill="#9d174d"/></g><g opacity="0.21542544491711582" filter="url(#blurBg)"><polygon points="56.53965050968148,32.89473910519774 69.5592188433062,40.055501688691336 56.53965050968148,47.21626427218494 43.52008217605676,40.055501688691336" fill="#f472b6"/><polygon points="43.52008217605676,40.055501688691336 56.53965050968148,47.21626427218494 56.53965050968148,62.188767855853364 43.52008217605676,55.02800527235976" fill="#db2777"/><polygon points="56.53965050968148,47.21626427218494 69.5592188433062,40.055501688691336 69.5592188433062,55.02800527235976 56.53965050968148,62.188767855853364" fill="#9d174d"/></g><g opacity="0.27537254041817893" filter="url(#blurBg)"><polygon points="461.7207740094001,178.76652850833844 473.46517311167753,185.225948014591 461.7207740094001,191.6853675208436 449.97637490712265,185.225948014591" fill="#34d399"/><polygon points="449.97637490712265,185.225948014591 461.7207740094001,191.6853675208436 461.7207740094001,205.19142648846264 449.97637490712265,198.73200698221004" fill="#10b981"/><polygon points="461.7207740094001,191.6853675208436 473.46517311167753,185.225948014591 473.46517311167753,198.73200698221004 461.7207740094001,205.19142648846264" fill="#047857"/></g><g opacity="0.24297579722519136" filter="url(#blurBg)"><polygon points="1032.9356426813977,3.4443065828458908 1046.7014172362792,11.015482588030746 1032.9356426813977,18.586658593215603 1019.1698681265161,11.015482588030746" fill="#34d399"/><polygon points="1019.1698681265161,11.015482588030746 1032.9356426813977,18.586658593215603 1032.9356426813977,34.41729933132939 1019.1698681265161,26.846123326144536" fill="#10b981"/><polygon points="1032.9356426813977,18.586658593215603 1046.7014172362792,11.015482588030746 1046.7014172362792,26.846123326144536 1032.9356426813977,34.41729933132939" fill="#047857"/></g><g opacity="0.27261054840337284" filter="url(#blurBg)"><polygon points="408.21056763725426,88.05003859422784 417.4758296720116,93.1459327133444 408.21056763725426,98.24182683246093 398.9453056024969,93.1459327133444" fill="#a855f7"/><polygon points="398.9453056024969,93.1459327133444 408.21056763725426,98.24182683246093 408.21056763725426,108.89687817243188 398.9453056024969,103.80098405331535" fill="#7e22ce"/><polygon points="408.21056763725426,98.24182683246093 417.4758296720116,93.1459327133444 417.4758296720116,103.80098405331535 408.21056763725426,108.89687817243188" fill="#6b21a8"/></g><g opacity="0.20122906793669204" filter="url(#blurBg)"><polygon points="1051.0235284538328,79.01671522532723 1063.0282173582352,85.61929412274854 1051.0235284538328,92.22187302016985 1039.0188395494304,85.61929412274854" fill="#22d3ee"/><polygon points="1039.0188395494304,85.61929412274854 1051.0235284538328,92.22187302016985 1051.0235284538328,106.0272652602326 1039.0188395494304,99.42468636281129" fill="#0891b2"/><polygon points="1051.0235284538328,92.22187302016985 1063.0282173582352,85.61929412274854 1063.0282173582352,99.42468636281129 1051.0235284538328,106.0272652602326" fill="#0e7490"/></g><g opacity="0.14445428296794158" filter="url(#blurBg)"><polygon points="127.69298735724597,187.59005806992525 142.4263421426257,195.6934032018841 127.69298735724597,203.79674833384297 112.95963257186624,195.6934032018841" fill="#22d3ee"/><polygon points="112.95963257186624,195.6934032018841 127.69298735724597,203.79674833384297 127.69298735724597,220.74010633702966 112.95963257186624,212.6367612050708" fill="#0891b2"/><polygon points="127.69298735724597,203.79674833384297 142.4263421426257,195.6934032018841 142.4263421426257,212.6367612050708 127.69298735724597,220.74010633702966" fill="#0e7490"/></g><g opacity="0.21583113351363664" filter="url(#blurBg)"><polygon points="915.0129600901815,161.8137090358877 929.241971919226,169.63966554186217 915.0129600901815,177.46562204783663 900.7839482611371,169.63966554186217" fill="#a855f7"/><polygon points="900.7839482611371,169.63966554186217 915.0129600901815,177.46562204783663 915.0129600901815,193.82898565123776 900.7839482611371,186.0030291452633" fill="#7e22ce"/><polygon points="915.0129600901815,177.46562204783663 929.241971919226,169.63966554186217 929.241971919226,186.0030291452633 915.0129600901815,193.82898565123776" fill="#6b21a8"/></g><g opacity="0.1583123696540894" filter="url(#blurBg)"><polygon points="586.3268496347374,33.56031759626852 597.2306957721848,39.55743297186463 586.3268496347374,45.55454834746074 575.42300349729,39.55743297186463" fill="#34d399"/><polygon points="575.42300349729,39.55743297186463 586.3268496347374,45.55454834746074 586.3268496347374,58.09397140552532 575.42300349729,52.096856029929214" fill="#10b981"/><polygon points="586.3268496347374,45.55454834746074 597.2306957721848,39.55743297186463 597.2306957721848,52.096856029929214 586.3268496347374,58.09397140552532" fill="#047857"/></g></g><g opacity="0.4946705131761942" filter="url(#blurMid)"><polygon points="289.0459109366797,170.207083106673 306.92922692988367,180.04290690293516 289.0459109366797,189.87873069919732 271.16259494347577,180.04290690293516" fill="#22d3ee"/><polygon points="271.16259494347577,180.04290690293516 289.0459109366797,189.87873069919732 289.0459109366797,210.44454409138183 271.16259494347577,200.60872029511967" fill="#0891b2"/><polygon points="289.0459109366797,189.87873069919732 306.92922692988367,180.04290690293516 306.92922692988367,200.60872029511967 289.0459109366797,210.44454409138183" fill="#0e7490"/></g><g opacity="0.3985994484791449" filter="url(#blurMid)"><polygon points="94.50845794963931,219.57227845338832 115.5675225507652,231.15476398400756 94.50845794963931,242.73724951462682 73.44939334851341,231.15476398400756" fill="#f472b6"/><polygon points="73.44939334851341,231.15476398400756 94.50845794963931,242.73724951462682 94.50845794963931,266.9551738059216 73.44939334851341,255.37268827530235" fill="#db2777"/><polygon points="94.50845794963931,242.73724951462682 115.5675225507652,231.15476398400756 115.5675225507652,255.37268827530235 94.50845794963931,266.9551738059216" fill="#9d174d"/></g><g opacity="0.38808198287237555" filter="url(#blurMid)"><polygon points="979.2279041041062,293.39534810320026 997.0116876476629,303.1764290521565 979.2279041041062,312.95751000111267 961.4441205605494,303.1764290521565" fill="#f472b6"/><polygon points="961.4441205605494,303.1764290521565 979.2279041041062,312.95751000111267 979.2279041041062,333.4088610762029 961.4441205605494,323.62778012724675" fill="#db2777"/><polygon points="979.2279041041062,312.95751000111267 997.0116876476629,303.1764290521565 997.0116876476629,323.62778012724675 979.2279041041062,333.4088610762029" fill="#9d174d"/></g><g opacity="0.42085951331791077" filter="url(#blurMid)"><polygon points="639.2474034354188,37.7281534561324 654.0228499492495,45.85464903873922 639.2474034354188,53.98114462134605 624.4719569215882,45.85464903873922" fill="#f472b6"/><polygon points="624.4719569215882,45.85464903873922 639.2474034354188,53.98114462134605 639.2474034354188,70.97290811225122 624.4719569215882,62.8464125296444" fill="#db2777"/><polygon points="639.2474034354188,53.98114462134605 654.0228499492495,45.85464903873922 654.0228499492495,62.8464125296444 639.2474034354188,70.97290811225122" fill="#9d174d"/></g><g opacity="0.4846729094586603" filter="url(#blurMid)"><polygon points="791.7009872968409,284.0546039114973 808.9898055052388,293.56345392611615 791.7009872968409,303.07230394073497 774.4121690884431,293.56345392611615" fill="#a855f7"/><polygon points="774.4121690884431,293.56345392611615 791.7009872968409,303.07230394073497 791.7009872968409,322.95444488039254 774.4121690884431,313.4455948657737" fill="#7e22ce"/><polygon points="791.7009872968409,303.07230394073497 808.9898055052388,293.56345392611615 808.9898055052388,313.4455948657737 791.7009872968409,322.95444488039254" fill="#6b21a8"/></g><g opacity="0.3621225348154027" filter="url(#blurMid)"><polygon points="198.1523507689532,158.3021362254762 220.02567245988092,170.33246315548647 198.1523507689532,182.3627900854967 176.27902907802547,170.33246315548647" fill="#a855f7"/><polygon points="176.27902907802547,170.33246315548647 198.1523507689532,182.3627900854967 198.1523507689532,207.51711003006358 176.27902907802547,195.48678310005334" fill="#7e22ce"/><polygon points="198.1523507689532,182.3627900854967 220.02567245988092,170.33246315548647 220.02567245988092,195.48678310005334 198.1523507689532,207.51711003006358" fill="#6b21a8"/></g><g opacity="0.3997312667840571" filter="url(#blurMid)"><polygon points="727.9127009791547,289.3088718022366 747.7384096866841,300.2130115913778 727.9127009791547,311.117151380519 708.0869922716253,300.2130115913778" fill="#a855f7"/><polygon points="708.0869922716253,300.2130115913778 727.9127009791547,311.117151380519 727.9127009791547,333.91671639417785 708.0869922716253,323.01257660503666" fill="#7e22ce"/><polygon points="727.9127009791547,311.117151380519 747.7384096866841,300.2130115913778 747.7384096866841,323.01257660503666 727.9127009791547,333.91671639417785" fill="#6b21a8"/></g><g opacity="0.37803645941895486" filter="url(#blurMid)"><polygon points="1114.6961916026123,226.57955899074165 1130.2178628701388,235.11647818788123 1114.6961916026123,243.65339738502078 1099.1745203350858,235.11647818788123" fill="#f472b6"/><polygon points="1099.1745203350858,235.11647818788123 1114.6961916026123,243.65339738502078 1114.6961916026123,261.50331934267626 1099.1745203350858,252.96640014553668" fill="#db2777"/><polygon points="1114.6961916026123,243.65339738502078 1130.2178628701388,235.11647818788123 1130.2178628701388,252.96640014553668 1114.6961916026123,261.50331934267626" fill="#9d174d"/></g><g opacity="0.3999612895764201" filter="url(#blurMid)"><polygon points="827.8411585195457,213.88469184573654 843.3090628058436,222.39203920320037 827.8411585195457,230.8993865606642 812.3732542332478,222.39203920320037" fill="#f472b6"/><polygon points="812.3732542332478,222.39203920320037 827.8411585195457,230.8993865606642 827.8411585195457,248.68747648990674 812.3732542332478,240.18012913244291" fill="#db2777"/><polygon points="827.8411585195457,230.8993865606642 843.3090628058436,222.39203920320037 843.3090628058436,240.18012913244291 827.8411585195457,248.68747648990674" fill="#9d174d"/></g><g opacity="0.5116044489463405" filter="url(#blurMid)"><polygon points="448.1046030351526,269.88422539288365 469.4907278293607,281.6465940296981 448.1046030351526,293.40896266651254 426.7184782409445,281.6465940296981" fill="#f472b6"/><polygon points="426.7184782409445,281.6465940296981 448.1046030351526,293.40896266651254 448.1046030351526,318.00300617985187 426.7184782409445,306.24063754303745" fill="#db2777"/><polygon points="448.1046030351526,293.40896266651254 469.4907278293607,281.6465940296981 469.4907278293607,306.24063754303745 448.1046030351526,318.00300617985187" fill="#9d174d"/></g><g opacity="0.36011766590497624" filter="url(#blurMid)"><polygon points="541.7833696693557,74.37168409980238 562.6311048091027,85.83793842666321 541.7833696693557,97.30419275352406 520.9356345296087,85.83793842666321" fill="#a855f7"/><polygon points="520.9356345296087,85.83793842666321 541.7833696693557,97.30419275352406 541.7833696693557,121.27908816423309 520.9356345296087,109.81283383737224" fill="#7e22ce"/><polygon points="541.7833696693557,97.30419275352406 562.6311048091027,85.83793842666321 562.6311048091027,109.81283383737224 541.7833696693557,121.27908816423309" fill="#6b21a8"/></g><g opacity="0.5437992514569503" filter="url(#blurMid)"><polygon points="76.83107559161391,6.3102780021176645 98.82533533891572,18.407120863133663 76.83107559161391,30.503963724149656 54.8368158443121,18.407120863133663" fill="#a855f7"/><polygon points="54.8368158443121,18.407120863133663 76.83107559161391,30.503963724149656 76.83107559161391,55.79736243354674 54.8368158443121,43.700519572530744" fill="#7e22ce"/><polygon points="76.83107559161391,30.503963724149656 98.82533533891572,18.407120863133663 98.82533533891572,43.700519572530744 76.83107559161391,55.79736243354674" fill="#6b21a8"/></g><g opacity="0.3832622221207828" filter="url(#blurMid)"><polygon points="8.629006782112247,212.3522839645362 30.039942646177266,224.12829868977198 8.629006782112247,235.90431341500775 -12.781929081952773,224.12829868977198" fill="#22d3ee"/><polygon points="-12.781929081952773,224.12829868977198 8.629006782112247,235.90431341500775 8.629006782112247,260.52688965868253 -12.781929081952773,248.75087493344677" fill="#0891b2"/><polygon points="8.629006782112247,235.90431341500775 30.039942646177266,224.12829868977198 30.039942646177266,248.75087493344677 8.629006782112247,260.52688965868253" fill="#0e7490"/></g><g opacity="0.5229300788060431" filter="url(#blurMid)"><polygon points="70.64852025158808,20.220098433092247 88.53364925519384,30.05691938507541 70.64852025158808,39.893740337058574 52.763391247982334,30.05691938507541" fill="#22d3ee"/><polygon points="52.763391247982334,30.05691938507541 70.64852025158808,39.893740337058574 70.64852025158808,60.46163869120518 52.763391247982334,50.62481773922202" fill="#0891b2"/><polygon points="70.64852025158808,39.893740337058574 88.53364925519384,30.05691938507541 88.53364925519384,50.62481773922202 70.64852025158808,60.46163869120518" fill="#0e7490"/></g><g opacity="0.42579462379538324" filter="url(#blurMid)"><polygon points="37.69554966362176,99.12854672414961 58.915092587706155,110.79929533239603 37.69554966362176,122.47004394064244 16.47600673953737,110.79929533239603" fill="#22d3ee"/><polygon points="16.47600673953737,110.79929533239603 37.69554966362176,122.47004394064244 37.69554966362176,146.8725183033395 16.47600673953737,135.20176969509308" fill="#0891b2"/><polygon points="37.69554966362176,122.47004394064244 58.915092587706155,110.79929533239603 58.915092587706155,135.20176969509308 37.69554966362176,146.8725183033395" fill="#0e7490"/></g><g opacity="0.5353036147118667" filter="url(#blurMid)"><polygon points="616.9873437703069,83.5431791893641 638.8698145205447,95.5785381019949 616.9873437703069,107.61389701462568 595.1048730200691,95.5785381019949" fill="#34d399"/><polygon points="595.1048730200691,95.5785381019949 616.9873437703069,107.61389701462568 616.9873437703069,132.77873837739915 595.1048730200691,120.74337946476837" fill="#10b981"/><polygon points="616.9873437703069,107.61389701462568 638.8698145205447,95.5785381019949 638.8698145205447,120.74337946476837 616.9873437703069,132.77873837739915" fill="#047857"/></g><g opacity="0.9"><polygon points="20,257.38058665621617 37.85129356794121,267.19879811858385 20,277.0170095809515 2.148706432058784,267.19879811858385" fill="#34d399"/><polygon points="2.148706432058784,267.19879811858385 20,277.0170095809515 20,297.5459971840839 2.148706432058784,287.72778572171626" fill="#10b981"/><polygon points="20,277.0170095809515 37.85129356794121,267.19879811858385 37.85129356794121,287.72778572171626 20,297.5459971840839" fill="#047857"/></g><g opacity="0.9"><polygon points="62.2335563045099,259.5690239006878 82.18778319943704,270.5438486928977 62.2335563045099,281.5186734851076 42.27932940958276,270.5438486928977" fill="#f472b6"/><polygon points="42.27932940958276,270.5438486928977 62.2335563045099,281.5186734851076 62.2335563045099,304.46603441427385 42.27932940958276,293.49120962206393" fill="#db2777"/><polygon points="62.2335563045099,281.5186734851076 82.18778319943704,270.5438486928977 82.18778319943704,293.49120962206393 62.2335563045099,304.46603441427385" fill="#9d174d"/></g><g opacity="0.9"><polygon points="98.8967795535285,250.3452973842434 118.5838732032201,261.17319889157375 98.8967795535285,272.00110039890416 79.20968590383691,261.17319889157375" fill="#a855f7"/><polygon points="79.20968590383691,261.17319889157375 98.8967795535285,272.00110039890416 98.8967795535285,294.64125809604946 79.20968590383691,283.8133565887191" fill="#7e22ce"/><polygon points="98.8967795535285,272.00110039890416 118.5838732032201,261.17319889157375 118.5838732032201,283.8133565887191 98.8967795535285,294.64125809604946" fill="#6b21a8"/></g><g opacity="0.9"><polygon points="131.2964638580269,265.24815077975137 147.13823980261662,273.9611275492757 131.2964638580269,282.67410431880006 115.45468791343718,273.9611275492757" fill="#22d3ee"/><polygon points="115.45468791343718,273.9611275492757 131.2964638580269,282.67410431880006 131.2964638580269,300.89214665507825 115.45468791343718,292.1791698855539" fill="#0891b2"/><polygon points="131.2964638580269,282.67410431880006 147.13823980261662,273.9611275492757 147.13823980261662,292.1791698855539 131.2964638580269,300.89214665507825" fill="#0e7490"/></g><g opacity="0.9"><polygon points="163.07922958348843,253.96601284335836 181.59265503692964,264.148396842751 163.07922958348843,274.33078084214367 144.5658041300472,264.148396842751" fill="#a855f7"/><polygon points="144.5658041300472,264.148396842751 163.07922958348843,274.33078084214367 163.07922958348843,295.62122011360105 144.5658041300472,285.4388361142084" fill="#7e22ce"/><polygon points="163.07922958348843,274.33078084214367 181.59265503692964,264.148396842751 181.59265503692964,285.4388361142084 163.07922958348843,295.62122011360105" fill="#6b21a8"/></g><g opacity="0.9"><polygon points="202.70110813009597,254.58242301432526 215.05314708010528,261.3760444368304 202.70110813009597,268.1696658593355 190.34906918008667,261.3760444368304" fill="#a855f7"/><polygon points="190.34906918008667,261.3760444368304 202.70110813009597,268.1696658593355 202.70110813009597,282.3745106518462 190.34906918008667,275.5808892293411" fill="#7e22ce"/><polygon points="202.70110813009597,268.1696658593355 215.05314708010528,261.3760444368304 215.05314708010528,275.5808892293411 202.70110813009597,282.3745106518462" fill="#6b21a8"/></g><g opacity="0.9"><polygon points="228.0936927340224,256.30070525961423 243.8828833090945,264.98476007590386 228.0936927340224,273.66881489219355 212.3045021589503,264.98476007590386" fill="#a855f7"/><polygon points="212.3045021589503,264.98476007590386 228.0936927340224,273.66881489219355 228.0936927340224,291.82638405352645 212.3045021589503,283.14232923723677" fill="#7e22ce"/><polygon points="228.0936927340224,273.66881489219355 243.8828833090945,264.98476007590386 243.8828833090945,283.14232923723677 228.0936927340224,291.82638405352645" fill="#6b21a8"/></g><g opacity="0.9"><polygon points="258.65177531978304,251.20797698330495 274.4884982126953,259.9181745744067 258.65177531978304,268.62837216550844 242.8150524268708,259.9181745744067" fill="#34d399"/><polygon points="242.8150524268708,259.9181745744067 258.65177531978304,268.62837216550844 258.65177531978304,286.8406034923575 242.8150524268708,278.13040590125576" fill="#10b981"/><polygon points="258.65177531978304,268.62837216550844 274.4884982126953,259.9181745744067 274.4884982126953,278.13040590125576 258.65177531978304,286.8406034923575" fill="#047857"/></g><g opacity="0.9"><polygon points="286.57836902012156,260.5882497916042 303.7402870280157,270.027304695946 286.57836902012156,279.4663596002878 269.4164510122274,270.027304695946" fill="#22d3ee"/><polygon points="269.4164510122274,270.027304695946 286.57836902012156,279.4663596002878 286.57836902012156,299.20256530936604 269.4164510122274,289.76351040502425" fill="#0891b2"/><polygon points="286.57836902012156,279.4663596002878 303.7402870280157,270.027304695946 303.7402870280157,289.76351040502425 286.57836902012156,299.20256530936604" fill="#0e7490"/></g><g opacity="0.9"><polygon points="315.8343357102606,260.48615697127383 332.28934359863706,269.5364113098809 315.8343357102606,278.58666564848795 299.3793278218841,269.5364113098809" fill="#f472b6"/><polygon points="299.3793278218841,269.5364113098809 315.8343357102606,278.58666564848795 315.8343357102606,297.5099247201209 299.3793278218841,288.4596703815139" fill="#db2777"/><polygon points="315.8343357102606,278.58666564848795 332.28934359863706,269.5364113098809 332.28934359863706,288.4596703815139 315.8343357102606,297.5099247201209" fill="#9d174d"/></g><g opacity="0.9"><polygon points="352.0598972545983,261.3360207671789 362.7853283995299,267.23500789689126 352.0598972545983,273.13399502660366 341.3344661096667,267.23500789689126" fill="#f472b6"/><polygon points="341.3344661096667,267.23500789689126 352.0598972545983,273.13399502660366 352.0598972545983,285.46824084327494 341.3344661096667,279.56925371356255" fill="#db2777"/><polygon points="352.0598972545983,273.13399502660366 362.7853283995299,267.23500789689126 362.7853283995299,279.56925371356255 352.0598972545983,285.46824084327494" fill="#9d174d"/></g><g opacity="0.9"><polygon points="374.05126675155645,262.90603240597386 385.0510792408023,268.9559292750591 374.05126675155645,275.00582614414435 363.0514542623106,268.9559292750591" fill="#22d3ee"/><polygon points="363.0514542623106,268.9559292750591 374.05126675155645,275.00582614414435 374.05126675155645,287.6556105067771 363.0514542623106,281.60571363769185" fill="#0891b2"/><polygon points="374.05126675155645,275.00582614414435 385.0510792408023,268.9559292750591 385.0510792408023,281.60571363769185 374.05126675155645,287.6556105067771" fill="#0e7490"/></g><g opacity="0.9"><polygon points="392.81656468394965,254.44158777060213 406.3066530335948,261.86113636290696 392.81656468394965,269.28068495521177 379.3264763343045,261.86113636290696" fill="#a855f7"/><polygon points="379.3264763343045,261.86113636290696 392.81656468394965,269.28068495521177 392.81656468394965,284.7942865573037 379.3264763343045,277.37473796499887" fill="#7e22ce"/><polygon points="392.81656468394965,269.28068495521177 406.3066530335948,261.86113636290696 406.3066530335948,277.37473796499887 392.81656468394965,284.7942865573037" fill="#6b21a8"/></g><g opacity="0.9"><polygon points="418.38866850312166,260.6356874248125 429.96613682669397,267.00329500277724 418.38866850312166,273.37090258074204 406.81120017954936,267.00329500277724" fill="#34d399"/><polygon points="406.81120017954936,267.00329500277724 418.38866850312166,273.37090258074204 418.38866850312166,286.6849911528502 406.81120017954936,280.3173835748854" fill="#10b981"/><polygon points="418.38866850312166,273.37090258074204 429.96613682669397,267.00329500277724 429.96613682669397,280.3173835748854 418.38866850312166,286.6849911528502" fill="#047857"/></g><g opacity="0.9"><polygon points="446.05634543857894,254.77442556349132 462.59610861568626,263.87129531090034 446.05634543857894,272.96816505830935 429.5165822614716,263.87129531090034" fill="#a855f7"/><polygon points="429.5165822614716,263.87129531090034 446.05634543857894,272.96816505830935 446.05634543857894,291.98889271198277 429.5165822614716,282.89202296457375" fill="#7e22ce"/><polygon points="446.05634543857894,272.96816505830935 462.59610861568626,263.87129531090034 462.59610861568626,282.89202296457375 446.05634543857894,291.98889271198277" fill="#6b21a8"/></g><g opacity="0.9"><polygon points="479.8583588498406,247.65955954280554 499.1759192442014,258.28421775970395 479.8583588498406,268.9088759766024 460.54079845547983,258.28421775970395" fill="#a855f7"/><polygon points="460.54079845547983,258.28421775970395 479.8583588498406,268.9088759766024 479.8583588498406,291.1240704301173 460.54079845547983,280.4994122132188" fill="#7e22ce"/><polygon points="479.8583588498406,268.9088759766024 499.1759192442014,258.28421775970395 499.1759192442014,280.4994122132188 479.8583588498406,291.1240704301173" fill="#6b21a8"/></g><g opacity="0.9"><polygon points="512.8417968509938,258.967046352113 523.9960835551848,265.10190403941806 512.8417968509938,271.23676172672316 501.68751014680277,265.10190403941806" fill="#a855f7"/><polygon points="501.68751014680277,265.10190403941806 512.8417968509938,271.23676172672316 512.8417968509938,284.06419143654284 501.68751014680277,277.92933374923774" fill="#7e22ce"/><polygon points="512.8417968509938,271.23676172672316 523.9960835551848,265.10190403941806 523.9960835551848,277.92933374923774 512.8417968509938,284.06419143654284" fill="#6b21a8"/></g><g opacity="0.9"><polygon points="532.0757840202574,257.70064229120027 544.8933467348363,264.75030178421866 532.0757840202574,271.7999612772371 519.2582213056785,264.75030178421866" fill="#22d3ee"/><polygon points="519.2582213056785,264.75030178421866 532.0757840202574,271.7999612772371 532.0757840202574,286.5401583990029 519.2582213056785,279.49049890598445" fill="#0891b2"/><polygon points="532.0757840202574,271.7999612772371 544.8933467348363,264.75030178421866 544.8933467348363,279.49049890598445 532.0757840202574,286.5401583990029" fill="#0e7490"/></g><g opacity="0.9"><polygon points="554.6715814190052,257.5710754815814 571.013961007856,266.5593842554493 554.6715814190052,275.54769302931726 538.3292018301544,266.5593842554493" fill="#34d399"/><polygon points="538.3292018301544,266.5593842554493 554.6715814190052,275.54769302931726 554.6715814190052,294.34142955649565 538.3292018301544,285.3531207826277" fill="#10b981"/><polygon points="554.6715814190052,275.54769302931726 571.013961007856,266.5593842554493 571.013961007856,285.3531207826277 554.6715814190052,294.34142955649565" fill="#047857"/></g><g opacity="0.9"><polygon points="584.1025238204894,261.44163405441054 603.1841142826752,271.9365088086127 584.1025238204894,282.43138356281486 565.0209333583036,271.9365088086127" fill="#a855f7"/><polygon points="565.0209333583036,271.9365088086127 584.1025238204894,282.43138356281486 584.1025238204894,304.37521259432845 565.0209333583036,293.8803378401263" fill="#7e22ce"/><polygon points="584.1025238204894,282.43138356281486 603.1841142826752,271.9365088086127 603.1841142826752,293.8803378401263 584.1025238204894,304.37521259432845" fill="#6b21a8"/></g><g opacity="0.9"><polygon points="621.0990680973986,263.8962931425961 633.8658703371211,270.9180343744435 621.0990680973986,277.9397756062909 608.332265857676,270.9180343744435" fill="#a855f7"/><polygon points="608.332265857676,270.9180343744435 621.0990680973986,277.9397756062909 621.0990680973986,292.62159818197176 608.332265857676,285.5998569501244" fill="#7e22ce"/><polygon points="621.0990680973986,277.9397756062909 633.8658703371211,270.9180343744435 633.8658703371211,285.5998569501244 621.0990680973986,292.62159818197176" fill="#6b21a8"/></g><g opacity="0.9"><polygon points="642.8620706707516,250.34232592814476 662.6600502090399,261.23121467420333 642.8620706707516,272.12010342026196 623.0640911324632,261.23121467420333" fill="#22d3ee"/><polygon points="623.0640911324632,261.23121467420333 642.8620706707516,272.12010342026196 642.8620706707516,294.8877798892936 623.0640911324632,283.9988911432349" fill="#0891b2"/><polygon points="642.8620706707516,272.12010342026196 662.6600502090399,261.23121467420333 662.6600502090399,283.9988911432349 642.8620706707516,294.8877798892936" fill="#0e7490"/></g><g opacity="0.9"><polygon points="683.2765640833206,265.9331487207638 697.5534332731274,273.7854267751576 683.2765640833206,281.6377048295513 668.9996948935138,273.7854267751576" fill="#a855f7"/><polygon points="668.9996948935138,273.7854267751576 683.2765640833206,281.6377048295513 683.2765640833206,298.05610439782913 668.9996948935138,290.2038263434354" fill="#7e22ce"/><polygon points="683.2765640833206,281.6377048295513 697.5534332731274,273.7854267751576 697.5534332731274,290.2038263434354 683.2765640833206,298.05610439782913" fill="#6b21a8"/></g><g opacity="0.9"><polygon points="716.9134496945899,256.3603591351529 733.8236459321487,265.66096706581027 716.9134496945899,274.96157499646756 700.0032534570311,265.66096706581027" fill="#22d3ee"/><polygon points="700.0032534570311,265.66096706581027 716.9134496945899,274.96157499646756 716.9134496945899,294.40830066966015 700.0032534570311,285.10769273900286" fill="#0891b2"/><polygon points="716.9134496945899,274.96157499646756 733.8236459321487,265.66096706581027 733.8236459321487,285.10769273900286 716.9134496945899,294.40830066966015" fill="#0e7490"/></g><g opacity="0.9"><polygon points="755.2602961268134,259.2983169290097 771.0853917917113,268.00211954470353 755.2602961268134,276.7059221603974 739.4352004619154,268.00211954470353" fill="#22d3ee"/><polygon points="739.4352004619154,268.00211954470353 755.2602961268134,276.7059221603974 755.2602961268134,294.90478217503005 739.4352004619154,286.20097955933613" fill="#0891b2"/><polygon points="755.2602961268134,276.7059221603974 771.0853917917113,268.00211954470353 771.0853917917113,286.20097955933613 755.2602961268134,294.90478217503005" fill="#0e7490"/></g><g opacity="0.9"><polygon points="781.1100057363105,253.97069066230387 794.756520889583,261.47627399660377 781.1100057363105,268.98185733090367 767.463490583038,261.47627399660377" fill="#a855f7"/><polygon points="767.463490583038,261.47627399660377 781.1100057363105,268.98185733090367 781.1100057363105,284.6753497571671 767.463490583038,277.1697664228672" fill="#7e22ce"/><polygon points="781.1100057363105,268.98185733090367 794.756520889583,261.47627399660377 794.756520889583,277.1697664228672 781.1100057363105,284.6753497571671" fill="#6b21a8"/></g><g opacity="0.9"><polygon points="805.237880112587,263.8458444539369 817.7331775048162,270.718258019663 805.237880112587,277.59067158538903 792.7425827203579,270.718258019663" fill="#a855f7"/><polygon points="792.7425827203579,270.718258019663 805.237880112587,277.59067158538903 805.237880112587,291.96026358645264 792.7425827203579,285.0878500207266" fill="#7e22ce"/><polygon points="805.237880112587,277.59067158538903 817.7331775048162,270.718258019663 817.7331775048162,285.0878500207266 805.237880112587,291.96026358645264" fill="#6b21a8"/></g><g opacity="0.9"><polygon points="830.8270848015222,248.44065160347617 849.5742120369331,258.7515715829522 830.8270848015222,269.0624915624282 812.0799575661114,258.7515715829522" fill="#22d3ee"/><polygon points="812.0799575661114,258.7515715829522 830.8270848015222,269.0624915624282 830.8270848015222,290.62168788315074 812.0799575661114,280.31076790367473" fill="#0891b2"/><polygon points="830.8270848015222,269.0624915624282 849.5742120369331,258.7515715829522 849.5742120369331,280.31076790367473 830.8270848015222,290.62168788315074" fill="#0e7490"/></g><g opacity="0.9"><polygon points="864.3730042891201,256.2723230543824 875.9980219601244,262.6660827734348 864.3730042891201,269.05984249248723 852.7479866181158,262.6660827734348" fill="#22d3ee"/><polygon points="852.7479866181158,262.6660827734348 864.3730042891201,269.05984249248723 864.3730042891201,282.4286128141423 852.7479866181158,276.0348530950899" fill="#0891b2"/><polygon points="864.3730042891201,269.05984249248723 875.9980219601244,262.6660827734348 875.9980219601244,276.0348530950899 864.3730042891201,282.4286128141423" fill="#0e7490"/></g><g opacity="0.9"><polygon points="883.2035460787802,252.1161713440871 900.569190796331,261.66727593874003 883.2035460787802,271.218380533393 865.8379013612293,261.66727593874003" fill="#34d399"/><polygon points="865.8379013612293,261.66727593874003 883.2035460787802,271.218380533393 883.2035460787802,291.18887195857644 865.8379013612293,281.6377673639235" fill="#10b981"/><polygon points="883.2035460787802,271.218380533393 900.569190796331,261.66727593874003 900.569190796331,281.6377673639235 883.2035460787802,291.18887195857644" fill="#047857"/></g><g opacity="0.9"><polygon points="916.7083092875591,261.0320373536065 933.4073805804411,270.21652656469155 916.7083092875591,279.40101577577667 900.0092379946772,270.21652656469155" fill="#22d3ee"/><polygon points="900.0092379946772,270.21652656469155 916.7083092875591,279.40101577577667 916.7083092875591,298.60494776259094 900.0092379946772,289.4204585515058" fill="#0891b2"/><polygon points="916.7083092875591,279.40101577577667 933.4073805804411,270.21652656469155 933.4073805804411,289.4204585515058 916.7083092875591,298.60494776259094" fill="#0e7490"/></g><g opacity="0.9"><polygon points="953.9455618059712,257.18155171456596 965.0265180700009,263.27607765978223 953.9455618059712,269.3706036049985 942.8646055419416,263.27607765978223" fill="#a855f7"/><polygon points="942.8646055419416,263.27607765978223 953.9455618059712,269.3706036049985 953.9455618059712,282.1137033086325 942.8646055419416,276.01917736341625" fill="#7e22ce"/><polygon points="953.9455618059712,269.3706036049985 965.0265180700009,263.27607765978223 965.0265180700009,276.01917736341625 953.9455618059712,282.1137033086325" fill="#6b21a8"/></g><g opacity="0.9"><polygon points="973.6469144650338,258.239599152896 991.8127805210031,268.2308254836791 973.6469144650338,278.22205181446225 955.4810484090644,268.2308254836791" fill="#f472b6"/><polygon points="955.4810484090644,268.2308254836791 973.6469144650338,278.22205181446225 973.6469144650338,299.1127977788269 955.4810484090644,289.12157144804377" fill="#db2777"/><polygon points="973.6469144650338,278.22205181446225 991.8127805210031,268.2308254836791 991.8127805210031,289.12157144804377 973.6469144650338,299.1127977788269" fill="#9d174d"/></g><g opacity="0.9"><polygon points="1014.636903347208,262.9081386861467 1033.350133705838,273.20041538339325 1014.636903347208,283.49269208063976 995.9236729885779,273.20041538339325" fill="#22d3ee"/><polygon points="995.9236729885779,273.20041538339325 1014.636903347208,283.49269208063976 1014.636903347208,305.01290699306435 995.9236729885779,294.72063029581784" fill="#0891b2"/><polygon points="1014.636903347208,283.49269208063976 1033.350133705838,273.20041538339325 1033.350133705838,294.72063029581784 1014.636903347208,305.01290699306435" fill="#0e7490"/></g><g opacity="0.9"><polygon points="1047.469337695488,253.24715482324913 1060.7519572074652,260.5525955548365 1047.469337695488,267.8580362864239 1034.186718183511,260.5525955548365" fill="#a855f7"/><polygon points="1034.186718183511,260.5525955548365 1047.469337695488,267.8580362864239 1047.469337695488,283.1330487251975 1034.186718183511,275.8276079936101" fill="#7e22ce"/><polygon points="1047.469337695488,267.8580362864239 1060.7519572074652,260.5525955548365 1060.7519572074652,275.8276079936101 1047.469337695488,283.1330487251975" fill="#6b21a8"/></g><g opacity="0.9"><polygon points="1071.687537774338,254.71289272015952 1088.1023551604142,263.7410422825015 1071.687537774338,272.7691918448434 1055.2727203882616,263.7410422825015" fill="#f472b6"/><polygon points="1055.2727203882616,263.7410422825015 1071.687537774338,272.7691918448434 1071.687537774338,291.6462318388311 1055.2727203882616,282.6180822764892" fill="#db2777"/><polygon points="1071.687537774338,272.7691918448434 1088.1023551604142,263.7410422825015 1088.1023551604142,282.6180822764892 1071.687537774338,291.6462318388311" fill="#9d174d"/></g><g opacity="0.9"><polygon points="1109.0300807367287,266.8430332882331 1122.3415794188727,274.1643575634123 1109.0300807367287,281.4856818385916 1095.7185820545847,274.1643575634123" fill="#a855f7"/><polygon points="1095.7185820545847,274.1643575634123 1109.0300807367287,281.4856818385916 1109.0300807367287,296.79390532305723 1095.7185820545847,289.47258104787795" fill="#7e22ce"/><polygon points="1109.0300807367287,281.4856818385916 1122.3415794188727,274.1643575634123 1122.3415794188727,289.47258104787795 1109.0300807367287,296.79390532305723" fill="#6b21a8"/></g><g opacity="0.9"><polygon points="1140.6624677919785,269.6022066806231 1152.4481459537033,276.0843296695717 1140.6624677919785,282.56645265852023 1128.8767896302538,276.0843296695717" fill="#34d399"/><polygon points="1128.8767896302538,276.0843296695717 1140.6624677919785,282.56645265852023 1140.6624677919785,296.11998254450356 1128.8767896302538,289.637859555555" fill="#10b981"/><polygon points="1140.6624677919785,282.56645265852023 1152.4481459537033,276.0843296695717 1152.4481459537033,289.637859555555 1140.6624677919785,296.11998254450356" fill="#047857"/></g><g opacity="0.9"><polygon points="1165.1443503001954,261.56082674127225 1178.6012214169934,268.96210585551114 1165.1443503001954,276.36338496975003 1151.6874791833973,268.96210585551114" fill="#34d399"/><polygon points="1151.6874791833973,268.96210585551114 1165.1443503001954,276.36338496975003 1165.1443503001954,291.8387867540677 1151.6874791833973,284.4375076398288" fill="#10b981"/><polygon points="1165.1443503001954,276.36338496975003 1178.6012214169934,268.96210585551114 1178.6012214169934,284.4375076398288 1165.1443503001954,291.8387867540677" fill="#047857"/></g><rect class="scan" x="0" y="0" width="120" height="300" fill="url(#textGrad)" opacity="0.04"/>
<g filter="url(#glow)" text-anchor="middle">
  <text x="600.0" y="118" font-family="'Fira Code','Courier New',monospace" font-size="52" font-weight="700" fill="url(#textGrad)">AMOL RAKH</text>
</g>
<g text-anchor="middle">
  <text x="600.0" y="152" font-family="'Fira Code','Courier New',monospace" font-size="18" fill="#8b949e">Full-Stack Developer &#183; AI/ML Engineer &#183; DevOps</text>
  <text x="600.0" y="184" font-family="'Fira Code','Courier New',monospace" font-size="15" fill="#4ade80">amol@dev-amolrakh:~$ <tspan fill="#e6edf3">whoami --skills=react,node,python,ai,docker</tspan><tspan class="cursor" fill="#4ade80">&#9608;</tspan></text>
</g>
</svg>
